<svg xmlns="http://www.w3.org/2000/svg" viewBox="0 0 80 80" fill="none" aria-hidden="true">
  <!-- Figma MCP export image=logo-mmb 316:10151; fills fixed for `file://` (no CSS variables). -->
  <g id="image">
    <path
      d="M60 20C60 14.4772 64.4772 10 70 10V40C70 45.5228 65.5228 50 60 50V20Z"
      fill="#008800"
    />
    <path
      d="M50 30C55.5228 30 60 34.4772 60 40V50C54.4772 50 50 45.5228 50 40V30Z"
      fill="#AA0044"
    />
    <path
      d="M40 40C40 34.4772 44.4772 30 50 30V60C50 65.5228 45.5228 70 40 70V40Z"
      fill="#008800"
    />
    <path
      d="M30 30C35.5228 30 40 34.4772 40 40V70C34.4772 70 30 65.5228 30 60V30Z"
      fill="#AA0044"
    />
    <path
      d="M20 40C20 34.4772 24.4772 30 30 30V40C30 45.5228 25.5228 50 20 50V40Z"
      fill="#008800"
    />
    <path
      d="M10 10C15.5228 10 20 14.4772 20 20V50C14.4772 50 10 45.5228 10 40V10Z"
      fill="#AA0044"
    />
  </g>
</svg>
